HIERARCHY
ROOT Hips
{
  OFFSET -35.2597 29.1586 114.425
  CHANNELS 6 Xposition Yposition Zposition Zrotation Xrotation Yrotation
  JOINT LeftUpLeg
  {
    OFFSET 8.64259 1.95398 -2.38835
    CHANNELS 3 Zrotation Xrotation Yrotation
    JOINT LeftLeg
    {
      OFFSET 43.7702 0 0
      CHANNELS 3 Zrotation Xrotation Yrotation
      JOINT LeftFoot
      {
        OFFSET 40.6238 0 0
        CHANNELS 3 Zrotation Xrotation Yrotation
        JOINT LeftToeBase
        {
          OFFSET 12.7242 0 0
          CHANNELS 3 Zrotation Xrotation Yrotation
          End Site
          {
            OFFSET 0 0 0
          }
        }
      }
    }
  }
  JOINT RightUpLeg
  {
    OFFSET -8.2249 1.95398 -2.59336
    CHANNELS 3 Zrotation Xrotation Yrotation
    JOINT RightLeg
    {
      OFFSET 43.5653 0 0
      CHANNELS 3 Zrotation Xrotation Yrotation
      JOINT RightFoot
      {
        OFFSET 40.6238 0 0
        CHANNELS 3 Zrotation Xrotation Yrotation
        JOINT RightToeBase
        {
          OFFSET 12.7242 0 0
          CHANNELS 3 Zrotation Xrotation Yrotation
          End Site
          {
            OFFSET 0 0 0
          }
        }
      }
    }
  }
  JOINT Spine
  {
    OFFSET 0.165834 0.87714 6.61349
    CHANNELS 3 Zrotation Xrotation Yrotation
    JOINT Spine1
    {
      OFFSET 7.38963 1.71661e-005 0
      CHANNELS 3 Zrotation Xrotation Yrotation
      JOINT Spine2
      {
        OFFSET 11.9445 1.14441e-005 0
        CHANNELS 3 Zrotation Xrotation Yrotation
        JOINT Spine3
        {
          OFFSET 14.7254 4.19617e-005 0
          CHANNELS 3 Zrotation Xrotation Yrotation
          JOINT Spine4
          {
            OFFSET 10.9679 0 0
            CHANNELS 3 Zrotation Xrotation Yrotation
            JOINT RightShoulder
            {
              OFFSET 2.46616 -1.6653 3.69651
              CHANNELS 3 Zrotation Xrotation Yrotation
              JOINT RightArm
              {
                OFFSET 13.0012 0 0
                CHANNELS 3 Zrotation Xrotation Yrotation
                JOINT RightForeArm
                {
                  OFFSET 28.7848 1.62311e-005 0
                  CHANNELS 3 Zrotation Xrotation Yrotation
                  JOINT RightHand
                  {
                    OFFSET 26.5688 1.62095e-005 0
                    CHANNELS 3 Zrotation Xrotation Yrotation
                    End Site
                    {
                      OFFSET 0 0 0
                    }
                  }
                }
              }
            }
            JOINT LeftShoulder
            {
              OFFSET 2.38034 -1.29275 -3.7523
              CHANNELS 3 Zrotation Xrotation Yrotation
              JOINT LeftArm
              {
                OFFSET 16.3182 6.07031e-005 0
                CHANNELS 3 Zrotation Xrotation Yrotation
                JOINT LeftForeArm
                {
                  OFFSET 27.0901 0 0
                  CHANNELS 3 Zrotation Xrotation Yrotation
                  JOINT LeftHand
                  {
                    OFFSET 24.5451 1.51738e-005 0
                    CHANNELS 3 Zrotation Xrotation Yrotation
                    End Site
                    {
                      OFFSET 0 0 0
                    }
                  }
                }
              }
            }
            JOINT Neck
            {
              OFFSET 5.0226 -0.0266342 0
              CHANNELS 3 Zrotation Xrotation Yrotation
              JOINT Head
              {
                OFFSET 6.69364 2.86102e-005 0
                CHANNELS 3 Zrotation Xrotation Yrotation
                End Site
                {
                  OFFSET 0 0 0
                }
              }
            }
          }
        }
      }
    }
  }
}
MOTION
Frames:	6
Frame Time:	0.0416667
876.222 556.686 -6872.89 64.7346 -73.445 66.3404 -151.189 -33.9836 141.355 -5.56338 26.849 -2.52626 118.958 -13.3236 -10.22 30.8848 20.3924 -49.2914 -141.426 55.1824 10.9119 -2.16262 -11.9852 0.197981 10.8763 17.7433 44.0021 0.772619 -9.57385 39.5596 -2.40259 7.75275 -90.6518 11.3591 -5.08473 -0.788242 -0.302038 -5.11447 -0.563109 -22.904 -4.61232 -2.28298 -2.89136 -4.61231 -2.28298 96.4348 -14.7008 -97.6262 53.9352 6.28179 4.6796 -7.20065 -60.888 -6.8536 -35.6102 10.032 -36.29 -82.2781 -43.4803 89.7751 -34.094 16.625 -90.4222 176.226 63.2635 -177.353 97.8341 -8.5362 -11.4354 28.1587 4.23006 -1.9897 -7.22572 4.89665 -1.65854 
901.185 558.074 -6673.94 67.1533 -77.4457 68.3295 -146.376 -43.2546 143.085 -5.79475 29.1448 -3.25534 110.385 -13.2135 -9.99377 35.3547 21.5863 -53.5245 -137.845 66.2781 19.0992 -3.17789 -13.4131 0.341367 12.1989 12.9859 34.3631 2.26787 -9.38744 39.085 -2.5638 7.91058 -90.7622 11.0393 -5.457 -0.992763 -0.620314 -5.49539 -0.750915 -23.2306 -4.90583 -2.59048 -3.21798 -4.90583 -2.59047 96.0904 -14.1158 -98.753 50.6421 7.91669 6.43687 -7.30327 -61.537 -6.93979 -33.184 9.28655 -36.2843 -82.0442 -43.1497 90.1277 -31.8342 11.7509 -90.4315 173.912 71.7078 -175.035 103.375 -13.8492 -14.8372 28.3461 6.56871 -1.3467 -9.07717 6.79713 0.132382 
929.53 576.584 -6458.21 58.3009 -79.6992 61.8623 -141.07 -48.1657 146.699 -5.07824 30.8786 -4.94824 103.726 -11.7537 -10.3155 19.2999 20.1191 -48.1641 -143.068 74.5548 32.5242 -4.37669 -16.1592 0.799128 17.3764 14.3896 28.1065 4.02054 -9.59388 39.346 -2.51152 7.87833 -91.2387 11.0756 -5.57378 -1.92687 -0.584491 -5.65316 -1.67904 -23.1822 -4.73686 -3.51548 -3.16954 -4.73686 -3.51549 95.8883 -13.2607 -99.6203 48.4119 8.92374 7.58468 -6.97133 -59.3381 -6.66337 -31.8972 9.82141 -39.18 -81.5931 -43.1154 90.8662 -31.2329 10.1162 -89.9038 174.689 69.5398 -175.812 100.146 -13.605 -15.4069 28.4598 8.31731 -0.550135 -10.5257 8.03503 1.72316 
959.451 609.285 -6224.43 51.7972 -80.6254 56.1645 -137.473 -52.3084 147.771 -5.66846 33.7799 -4.03093 104.238 -6.11655 -8.87055 4.77306 19.2587 -45.4394 -153.256 79.8756 47.4494 -5.35476 -19.568 1.69039 25.88 16.7437 25.4264 3.16177 -9.9326 40.0892 -2.49656 7.80156 -91.5365 11.211 -5.68301 -2.50017 -0.449456 -5.78751 -2.24702 -23.038 -4.66908 -4.09436 -3.02537 -4.66908 -4.09436 95.429 -12.8117 -101.062 47.0111 9.66782 8.85164 -6.72378 -57.4919 -6.46277 -33.7628 11.2155 -41.6961 -81.5305 -43.4382 90.9955 -31.1097 8.77171 -87.8959 174.912 68.8159 -176.035 90.8376 -27.019 -29.7319 27.7267 9.51204 0.112627 -11.6419 8.81904 2.90182 
981.27 643.723 -6005.83 47.596 -81.4117 51.2043 -134.268 -56.9817 147.439 -6.55881 34.773 -1.85919 108.725 0.0396244 -8.62965 -2.41788 19.4235 -45.7402 -165.96 82.7561 63.1756 -5.75184 -23.9615 2.8002 33.976 17.8861 21.9255 3.43958 -11.1631 42.5323 -2.38574 7.68355 -91.5016 11.451 -5.44786 -2.43864 -0.210406 -5.54986 -2.19596 -22.7937 -4.4633 -3.96472 -2.78102 -4.46331 -3.96472 94.9895 -13.9469 -101.781 46.4877 9.78573 8.73686 -6.12266 -52.1096 -5.99973 -30.115 10.2398 -42.7768 -81.5792 -43.3526 90.9086 -33.858 11.5225 -83.3172 174.878 68.9304 -176.001 90.1805 -26.083 -29.2742 26.8758 9.5812 -0.183782 -11.4956 8.91754 3.90417 
992.908 660.528 -5826.21 51.5987 -82.6061 53.6846 -128.439 -61.8343 151.307 -5.62057 32.7352 -1.119 106.895 -1.05264 -10.087 1.35912 20.1958 -46.9577 178.002 81.8384 80.5527 -5.5149 -25.1969 3.60177 36.5768 16.566 18.627 3.66138 -11.0283 42.2209 -2.28372 7.69249 -91.348 11.4431 -5.17309 -2.16032 -0.219003 -5.26313 -1.93007 -22.8008 -4.28476 -3.61669 -2.78815 -4.28476 -3.61669 94.7139 -15.6687 -101.796 46.6614 9.17386 6.5489 -5.72697 -47.7102 -5.72115 -31.4038 10.4757 -42.0123 -81.9043 -44.4818 90.4737 -37.8337 15.1935 -77.6922 174.442 70.2882 -175.563 96.4386 -17.4565 -19.2677 26.2016 9.25335 -0.0637685 -11.9018 8.57255 3.71184 
